<?xml version="1.0" encoding="UTF-8"?>
<!-- Bahnhof: Zugkopf auf schiefergrauem Badge -->
<svg xmlns="http://www.w3.org/2000/svg" viewBox="0 0 64 64" width="64" height="64">
  <circle cx="32" cy="32" r="30" fill="#34495e" stroke="#1b2733" stroke-width="2"/>
  <!-- Wagenkasten -->
  <path d="M22 18 h20 a4 4 0 0 1 4 4 v20 a4 4 0 0 1 -4 4 h-20 a4 4 0 0 1 -4 -4 v-20 a4 4 0 0 1 4 -4 z"
        fill="#f3f6f9"/>
  <!-- Frontscheibe -->
  <rect x="23" y="23" width="18" height="9" rx="2" fill="#34495e"/>
  <!-- Scheinwerfer -->
  <circle cx="26" cy="38" r="2.2" fill="#ffd23f"/>
  <circle cx="38" cy="38" r="2.2" fill="#ffd23f"/>
  <!-- Räder/Schienen -->
  <g fill="#1b2733">
    <rect x="24" y="46" width="5" height="4" rx="1"/>
    <rect x="35" y="46" width="5" height="4" rx="1"/>
  </g>
  <rect x="18" y="50" width="28" height="2" rx="1" fill="#f3f6f9"/>
</svg>
